<svg width="27" height="27" viewBox="0 0 27 27" fill="none" xmlns="http://www.w3.org/2000/svg">
<path d="M24.9845 13.3173L26.4565 10.7733C26.6334 10.4672 26.6816 10.1034 26.5903 9.76187C26.499 9.42032 26.2759 9.129 25.9699 8.95196L23.4232 7.47996V4.54663C23.4232 4.19301 23.2827 3.85387 23.0327 3.60382C22.7826 3.35377 22.4435 3.2133 22.0899 3.2133H19.1579L17.6872 0.667963C17.5096 0.362519 17.2188 0.139304 16.8779 0.04663C16.7087 0.000784521 16.5322 -0.0110369 16.3585 0.0118508C16.1848 0.0347385 16.0173 0.0918803 15.8659 0.179964L13.3192 1.65196L10.7725 0.17863C10.4663 0.0018269 10.1024 -0.0460859 9.76079 0.0454312C9.41923 0.136948 9.128 0.360399 8.95119 0.66663L7.47919 3.2133H4.54719C4.19357 3.2133 3.85443 3.35377 3.60438 3.60382C3.35433 3.85387 3.21385 4.19301 3.21385 4.54663V7.47863L0.667187 8.95063C0.51523 9.03804 0.382042 9.15461 0.275274 9.29364C0.168505 9.43268 0.0902623 9.59145 0.0450394 9.76082C-0.000183453 9.93019 -0.0114947 10.1068 0.0117555 10.2806C0.0350058 10.4543 0.0923591 10.6218 0.180521 10.7733L1.65252 13.3173L0.180521 15.8613C0.00450567 16.1677 -0.04325 16.5312 0.0476652 16.8726C0.13858 17.2141 0.360793 17.5057 0.665854 17.684L3.21252 19.156V22.088C3.21252 22.4416 3.353 22.7807 3.60304 23.0308C3.85309 23.2808 4.19223 23.4213 4.54585 23.4213H7.47919L8.95119 25.968C9.06923 26.1698 9.23777 26.3373 9.44023 26.4542C9.64268 26.5711 9.87208 26.6333 10.1059 26.6346C10.3379 26.6346 10.5685 26.5733 10.7739 26.4546L13.3179 24.9826L15.8645 26.4546C16.1707 26.6312 16.5344 26.6791 16.8758 26.5879C17.2172 26.4966 17.5086 26.2737 17.6859 25.968L19.1565 23.4213H22.0885C22.4421 23.4213 22.7813 23.2808 23.0313 23.0308C23.2814 22.7807 23.4219 22.4416 23.4219 22.088V19.156L25.9685 17.684C26.1202 17.5963 26.2531 17.4796 26.3597 17.3405C26.4663 17.2015 26.5444 17.0428 26.5896 16.8735C26.6348 16.7042 26.6462 16.5277 26.6231 16.354C26.6001 16.1803 26.543 16.0129 26.4552 15.8613L24.9845 13.3173ZM9.98452 6.6373C10.5151 6.63747 11.0239 6.84843 11.399 7.22375C11.7741 7.59907 11.9847 8.10802 11.9845 8.63863C11.9843 9.16924 11.7734 9.67805 11.3981 10.0531C11.0227 10.4282 10.5138 10.6388 9.98319 10.6386C9.45258 10.6385 8.94377 10.4275 8.5687 10.0522C8.19363 9.67685 7.98301 9.16791 7.98319 8.6373C7.98336 8.10669 8.19432 7.59788 8.56964 7.22281C8.94496 6.84773 9.45391 6.63712 9.98452 6.6373ZM10.3845 19.4373L8.25119 17.8386L16.2512 7.17196L18.3845 8.77063L10.3845 19.4373ZM16.6512 19.9706C16.3885 19.9705 16.1283 19.9187 15.8856 19.8181C15.6429 19.7175 15.4224 19.57 15.2367 19.3842C15.051 19.1983 14.9037 18.9777 14.8032 18.735C14.7028 18.4922 14.6511 18.232 14.6512 17.9693C14.6513 17.7066 14.7031 17.4464 14.8037 17.2037C14.9044 16.961 15.0518 16.7405 15.2376 16.5548C15.4235 16.3691 15.6441 16.2218 15.8868 16.1213C16.1296 16.0209 16.3898 15.9692 16.6525 15.9693C17.1831 15.9695 17.6919 16.1804 18.067 16.5557C18.4421 16.9311 18.6527 17.44 18.6525 17.9706C18.6523 18.5012 18.4414 19.01 18.0661 19.3851C17.6907 19.7602 17.1818 19.9708 16.6512 19.9706Z" fill="url(#paint0_linear_3821_13646)"/>
<defs>
<linearGradient id="paint0_linear_3821_13646" x1="26.6355" y1="13.3173" x2="1.42103e-07" y2="13.3173" gradientUnits="userSpaceOnUse">
<stop stop-color="#800080"/>
<stop offset="1" stop-color="#FF864C"/>
</linearGradient>
</defs>
</svg>
