<svg width="28" height="28" viewBox="0 0 28 28" fill="none" xmlns="http://www.w3.org/2000/svg">
<path d="M26.547 13.4403L14.547 1.44033C14.067 0.960325 13.4003 0.666992 12.667 0.666992H3.33366C1.86699 0.666992 0.666992 1.86699 0.666992 3.33366V12.667C0.666992 13.4003 0.960325 14.067 1.45366 14.5603L13.4537 26.5603C13.9337 27.0403 14.6003 27.3337 15.3337 27.3337C16.067 27.3337 16.7337 27.0403 17.2137 26.547L26.547 17.2137C27.0403 16.7337 27.3337 16.067 27.3337 15.3337C27.3337 14.6003 27.027 13.9203 26.547 13.4403ZM5.33366 7.33366C4.22699 7.33366 3.33366 6.44033 3.33366 5.33366C3.33366 4.22699 4.22699 3.33366 5.33366 3.33366C6.44033 3.33366 7.33366 4.22699 7.33366 5.33366C7.33366 6.44033 6.44033 7.33366 5.33366 7.33366Z" fill="url(#paint0_linear_3821_13656)"/>
<defs>
<linearGradient id="paint0_linear_3821_13656" x1="27.3337" y1="14.0003" x2="0.666992" y2="14.0003" gradientUnits="userSpaceOnUse">
<stop stop-color="#800080"/>
<stop offset="1" stop-color="#FF864C"/>
</linearGradient>
</defs>
</svg>
