<svg width="19" height="24" viewBox="0 0 19 24" fill="none" xmlns="http://www.w3.org/2000/svg">
<path d="M0.78125 9.85938L2.03125 6.45312H8.76562C8.46354 5.75521 7.98958 5.19792 7.34375 4.78125C6.70833 4.35417 5.94271 4.14062 5.04688 4.14062H0.78125L2.03125 0.734375H18.6406L17.3906 4.14062H13.3906C13.5469 4.24479 13.6979 4.39062 13.8438 4.57812C13.9896 4.76562 14.1198 4.96875 14.2344 5.1875C14.349 5.40625 14.4427 5.63021 14.5156 5.85938C14.5885 6.08854 14.6354 6.28646 14.6562 6.45312H18.6406L17.3906 9.85938H14.375C14.1771 10.5052 13.875 11.1094 13.4688 11.6719C13.0729 12.224 12.5833 12.724 12 13.1719C11.4271 13.6094 10.776 13.9896 10.0469 14.3125C9.31771 14.625 8.53125 14.8646 7.6875 15.0312L17.4219 24H10.5625L1.45312 15.4688V12.1562H4.54688C5.05729 12.1562 5.52604 12.0938 5.95312 11.9688C6.39062 11.8333 6.77604 11.6615 7.10938 11.4531C7.45312 11.2344 7.74479 10.9896 7.98438 10.7188C8.23438 10.4375 8.42708 10.151 8.5625 9.85938H0.78125Z" fill="url(#paint0_linear_3821_13657)"/>
<defs>
<linearGradient id="paint0_linear_3821_13657" x1="21" y1="11.5" x2="-2" y2="11.5" gradientUnits="userSpaceOnUse">
<stop stop-color="#800080"/>
<stop offset="1" stop-color="#FF864C"/>
</linearGradient>
</defs>
</svg>
